<?xml version="1.0" encoding="utf-8"?>
<!-- Generator: Adobe Illustrator 18.1.1, SVG Export Plug-In . SVG Version: 6.00 Build 0)  -->
<svg version="1.1" id="Layer_1" xmlns="http://www.w3.org/2000/svg" xmlns:xlink="http://www.w3.org/1999/xlink" x="0px" y="0px"
	 viewBox="0 0 960 560" enable-background="new 0 0 960 560" xml:space="preserve">
<g>
	<g>
		<path fill="none" stroke="#FFFFFF" stroke-width="6.1645" stroke-linecap="round" stroke-miterlimit="10" d="M536.3,104.2
			c-1.1-16.3-9.8-31.8-24.6-41.3s-32.6-10.4-47.8-4.5"/>
		<circle fill="none" stroke="#FFFFFF" stroke-width="6.1645" stroke-miterlimit="10" cx="487" cy="102.1" r="16.3"/>
		<path fill="none" stroke="#FFFFFF" stroke-width="6.1645" stroke-linecap="round" stroke-miterlimit="10" d="M576,88.2
			c-5.8-23.8-20.3-45.4-42.7-59.5c-22.4-14.1-48.2-17.9-72.2-12.8"/>
		<path fill="none" stroke="#FFFFFF" stroke-width="6.1645" stroke-miterlimit="10" d="M457.6,152.5c-39.4-24.8-54.9-73.1-39.7-115
			c-7.2,6.1-13.4,13.4-18.7,21.8c-28.6,45.4-15,105.6,30.4,134.2s105.6,15,134.2-30.4c3.8-6.1,6.9-12.5,9.3-19
			C541.4,171.2,494.6,175.8,457.6,152.5z"/>
	</g>
	<g>
		<path fill="#FFFFFF" d="M144.2,417l-2.9,6.2c-4-1.6-8.6-3.2-14.2-4.5c-5.6-1.3-11-1.9-16.3-1.9c-4.8,0-9.3,0.6-13.1,1.9
			c-4,1.3-7.2,3-10.1,5.3c-2.7,2.2-4.8,4.8-6.2,7.8s-2.2,6.2-2.2,9.6c0,4,1,7.5,3,10.2c2.1,2.7,4.8,5.1,8.2,7.2
			c3.4,2.1,7.2,3.8,11.5,5.4s8.6,3.2,13.1,4.8c4.5,1.6,9,3.5,13.1,5.6c4.3,2.1,8,4.6,11.5,7.7c3.4,3,6.1,6.6,8.2,10.7
			c2.1,4.2,3,9.1,3,15c0,5.8-1.1,11-3.2,15.8c-2.1,4.6-5.1,8.6-9.1,12c-4,3.4-8.6,5.8-14.1,7.7c-5.4,1.8-11.5,2.7-18.2,2.7
			c-5.3,0-10.2-0.5-14.6-1.6c-4.3-1-8.3-2.2-11.7-3.7c-3.4-1.4-6.4-2.9-8.8-4.3c-2.4-1.4-4.5-2.6-5.8-3.4l3.8-7
			c2.1,1.4,4.5,2.9,7.4,4.3c2.9,1.4,5.9,2.7,9.1,4c3.2,1.3,6.7,2.2,10.2,2.9c3.5,0.8,7,1.1,10.7,1.1c4,0,8.3-0.6,12.6-1.8
			c4.3-1.3,8.3-3,11.8-5.4c3.5-2.4,6.6-5.6,8.8-9.4c2.2-3.8,3.4-8.5,3.4-13.8c0-5.1-1-9.4-3-13s-4.8-6.6-8.2-9s-7.2-4.6-11.5-6.4
			c-4.3-1.8-8.6-3.5-13.1-5.3c-4.5-1.6-9-3.4-13.1-5.1c-4.3-1.8-8-3.8-11.5-6.2c-3.4-2.4-6.1-5.3-8.2-8.5c-2.1-3.4-3-7.4-3-12.2
			c0-4.5,1-8.6,2.7-12.6c1.9-4,4.5-7.5,7.8-10.4c3.4-3,7.4-5.3,12.2-7c4.6-1.8,9.9-2.6,15.7-2.6c2.9,0,6.1,0.2,9.3,0.6
			c3.2,0.5,6.4,1,9.6,1.8c3.2,0.6,6.1,1.4,8.8,2.4C140,415.2,142.4,416,144.2,417z"/>
		<path fill="#FFFFFF" d="M313,410.2v7.7h-49.1v126.9H256V417.9h-48.8v-7.7L313,410.2L313,410.2z"/>
		<path fill="#FFFFFF" d="M473,544.6c-3.4-8-6.9-16.6-10.6-25.9c-3.7-9.3-7.5-18.9-11.4-28.6h-54.6c-3.8,9.9-7.5,19.5-11.2,28.6
			c-3.7,9.3-7.2,17.9-10.6,25.9h-8c2.7-6.2,5.6-13.1,8.6-20.8c3-7.7,6.4-15.5,9.8-24c3.4-8.3,6.7-17,10.2-25.6
			c3.4-8.6,6.9-17.3,10.2-25.6c3.4-8.3,6.6-16.3,9.8-24c3-7.7,6.1-14.6,8.6-20.8c2.6,6.2,5.4,13.1,8.5,20.8c3,7.7,6.4,15.7,9.8,24
			c3.4,8.3,6.7,17,10.2,25.6c3.4,8.6,6.9,17.3,10.2,25.6c3.4,8.3,6.6,16.3,9.8,24c3,7.7,6.1,14.6,8.6,20.8H473z M422.1,426.2
			c-3.5,8.3-7.2,17.4-11,27c-3.8,9.8-7.7,19.7-11.8,29.9h49.1c-4-10.2-7.8-20.3-11.7-29.9c-3.8-9.8-7.5-18.7-11-27l-1.6-5.4
			c-0.3,1-0.6,2.1-1,3S422.4,425.6,422.1,426.2z"/>
		<path fill="#FFFFFF" d="M643.5,410.2v7.7h-49.1v126.9h-7.8V417.9h-48.8v-7.7L643.5,410.2L643.5,410.2z"/>
		<path fill="#FFFFFF" d="M702.6,410.2h7.8v134.4h-7.8V410.2z"/>
		<path fill="#FFFFFF" d="M895,536.2c-4.5,2.7-9.8,5.1-16.2,7.2c-6.2,1.9-13.4,2.9-21.3,2.9c-10.2,0-19.7-1.8-28-5.4
			c-8.3-3.7-15.5-8.5-21.4-14.7s-10.6-13.4-13.8-21.6c-3.2-8.2-4.8-17-4.8-26.1c0-9.9,1.8-19,5.4-27.5c3.7-8.5,8.6-15.8,14.9-22.1
			s13.6-11.2,21.9-14.7s17.3-5.3,26.7-5.3c6.9,0,13.4,0.8,19.7,2.6c6.2,1.8,11.5,4,16,6.9c-0.8,1.1-1.3,2.1-1.8,2.7
			c-0.3,0.6-1.1,1.9-2.1,3.5c-4.5-2.7-9.4-4.8-15-6.2c-5.6-1.4-11-2.1-16.5-2.1c-8.5,0-16.5,1.6-24,4.8c-7.5,3.2-14.1,7.7-19.5,13.3
			c-5.6,5.6-9.9,12.2-13.1,19.7c-3.2,7.5-4.8,15.5-4.8,24c0,8,1.4,15.7,4.3,22.9c2.9,7.4,6.9,13.8,12.2,19.2
			c5.3,5.4,11.7,9.9,19,13.3c7.4,3.4,15.7,5,24.6,5c7,0,13.4-1,19.2-2.7c5.9-1.8,10.7-4,14.6-6.4L895,536.2z"/>
	</g>
	<g>
		<path fill="#FFFFFF" d="M46.4,236c12,15.5,24,31,35.8,46.6c11.8,15.5,23.8,31,35.8,46.6c12-15.5,24-31,35.8-46.6
			c11.8-15.5,23.8-31,35.8-46.6v143.5h-16v-92.2c0.2-1.1,0.2-2.1,0.3-3.2c0-1.1,0.2-2.1,0.3-3.2c-8.6,12.8-17.8,25.3-27.5,37.4
			c-9.6,12.2-19.2,24.3-28.6,36.6c-8.8-11.5-17.6-22.9-26.2-34.4c-8.6-11.5-17.6-22.9-26.2-34.4l-3.5-5.3c0.2,1.1,0.2,2.1,0.3,3.2
			c0,1.1,0.2,2.1,0.3,3.2v92.2H46.4V236z"/>
		<path fill="#FFFFFF" d="M219.2,242.4h16.3v137.3h-16.3V242.4z"/>
		<path fill="#FFFFFF" d="M254.2,242.4h32c9.4,0,18.2,1.6,26.7,4.8c8.3,3.2,15.7,7.8,21.9,13.8c6.2,6.1,11.2,13.3,14.9,21.6
			c3.7,8.3,5.4,17.9,5.4,28.5c0,7.7-1.3,15.7-4,23.7c-2.7,8.2-7,15.5-13,22.1c-6.1,6.6-13.8,12-23.5,16.3
			c-9.6,4.3-21.3,6.4-35.2,6.4h-25.3L254.2,242.4L254.2,242.4z M270.6,257.9V364h13.8c7.7,0,14.9-1.3,21.6-3.7
			c6.7-2.6,12.5-6.1,17.3-10.7c5-4.6,8.8-10.2,11.5-16.6c2.9-6.4,4.2-13.8,4.2-21.9s-1.4-15.4-4.2-21.9c-2.9-6.6-6.7-12.2-11.5-16.8
			c-5-4.6-10.7-8.2-17.3-10.7c-6.7-2.6-13.9-3.7-21.6-3.7H270.6L270.6,257.9z"/>
		<path fill="#FFFFFF" d="M492.5,242.4v143.5c-16.8-17.9-33.6-35.7-50.2-53.3C425.6,315,409,297.3,392,279.4c-0.6-1-1.3-1.8-1.9-2.6
			c-0.6-0.8-1.3-1.6-1.9-2.6c0.2,1.1,0.2,2.1,0.3,3.2c0,1.1,0.2,2.1,0.3,3.2v99.2h-16.3V236.3c16.8,18.2,33.6,36.5,50.2,54.4
			c16.6,17.9,33.3,36.2,50.2,54.4c0.6,1,1.3,1.8,1.9,2.6c0.6,0.8,1.3,1.6,1.9,2.6c-0.2-1.1-0.2-2.1-0.3-3.2c0-1.1-0.2-2.1-0.3-3.2
			V242.4H492.5z"/>
		<path fill="#FFFFFF" d="M521.9,242.4h16.3v137.3h-16.3V242.4z"/>
		<path fill="#FFFFFF" d="M625.8,336.3v-15.5h27c3.8,0,6.2,1,7.5,2.9c1.3,1.9,1.9,4.8,1.9,9v38.9c-5.3,3-10.9,5.4-16.8,7.2
			c-5.9,1.8-12.3,2.7-18.9,2.7c-9.8,0-18.7-1.8-27.2-5.4s-16-8.6-22.2-15c-6.4-6.4-11.4-13.8-15-22.2c-3.7-8.5-5.4-17.6-5.4-27.2
			s1.8-18.7,5.4-27.4c3.7-8.6,8.6-16,15-22.4c6.4-6.4,13.8-11.4,22.2-15c8.5-3.7,17.6-5.6,27.2-5.6c6.7,0,13,0.8,18.9,2.6
			s11.5,4.2,17,7.2c-1.4,2.2-2.9,4.5-4.5,6.6c-1.6,2.1-3,4.3-4.5,6.6c-4-2.4-8.3-4.2-12.8-5.4c-4.5-1.3-9.1-1.9-14.1-1.9
			c-7.5,0-14.4,1.4-21,4.3c-6.4,2.9-12.2,6.9-17.1,11.8c-5,5-8.8,10.9-11.5,17.6c-2.9,6.7-4.2,13.8-4.2,21.1
			c0,7.5,1.4,14.6,4.2,21.1c2.9,6.7,6.7,12.5,11.5,17.3c5,5,10.6,8.8,17.1,11.7c6.4,2.9,13.4,4.3,21,4.3c6.7,0,13.3-1.1,19.4-3.5
			v-20c0-2.2-0.2-3.7-0.6-4.6c-0.5-0.8-1.8-1.3-3.8-1.3h-15.7V336.3z"/>
		<path fill="#FFFFFF" d="M683.5,379.7V242.4h16.3v60.5h74.1v-60.5h16.3v137.3h-16.3v-61.4h-74.1v61.4L683.5,379.7L683.5,379.7z"/>
		<path fill="#FFFFFF" d="M913.6,242.4v15.5h-45.9v121.8h-16.3V257.9h-46.2v-15.5L913.6,242.4L913.6,242.4z"/>
	</g>
</g>
</svg>
